<?xml version="1.0" standalone="no"?>
<!DOCTYPE svg PUBLIC "-//W3C//DTD SVG 20010904//EN"
 "http://www.w3.org/TR/2001/REC-SVG-20010904/DTD/svg10.dtd">
<svg version="1.0" xmlns="http://www.w3.org/2000/svg"
 width="242.000000pt" height="242.000000pt" viewBox="0 0 242.000000 242.000000"
 preserveAspectRatio="xMidYMid meet">
<metadata>
Created by potrace 1.11, written by Peter Selinger 2001-2013
</metadata>
<g transform="translate(0.000000,242.000000) scale(0.100000,-0.100000)"
fill="#000000" stroke="none">
<path d="M1059 2406 c-2 -2 -22 -6 -44 -10 -22 -3 -53 -8 -70 -11 -34 -6 -163
-45 -185 -55 -197 -93 -277 -148 -407 -277 -121 -119 -218 -280 -279 -463 -29
-85 -29 -86 -29 -345 0 -241 2 -265 23 -331 26 -84 89 -223 126 -277 14 -21
26 -40 26 -43 0 -3 18 -28 39 -57 55 -74 64 -124 34 -205 -13 -34 -23 -74 -23
-88 0 -34 27 -84 46 -84 9 0 24 -21 35 -49 19 -44 26 -51 76 -69 45 -17 81
-20 208 -21 151 -2 154 -1 166 21 32 60 75 76 154 56 65 -16 429 -16 480 0 30
9 55 -3 55 -26 0 -5 11 -19 24 -31 21 -20 30 -22 83 -16 48 6 63 4 75 -9 22
-22 138 -23 138 -2 0 23 20 31 90 36 55 4 66 8 76 29 7 13 16 26 21 30 19 14
57 109 61 151 2 25 8 49 13 54 15 16 11 102 -6 116 -17 14 -20 40 -5 40 16 0
111 126 136 180 4 8 15 26 24 40 20 29 79 170 92 220 6 19 18 44 28 55 17 18
19 43 22 231 2 149 0 215 -9 225 -6 8 -14 32 -18 54 -26 149 -124 369 -211
472 -11 12 -29 35 -42 51 -37 49 -132 137 -201 187 -109 80 -303 172 -399 190
-15 3 -56 11 -92 19 -56 12 -321 21 -331 12z"/>
</g>
</svg>
